<svg width="118" height="92" fill="none" xmlns="http://www.w3.org/2000/svg">
  <path d="M81.3127 29.1292c-2.1455-4.5933-6.0931-13.9952-4.72-14.8564m0 0C78.309 13.1962 91.8254 8.02875 87.749 2.43066M76.5927 14.2728c1.4303-1.8661 3.8618-5.68424 2.1454-6.02874-1.7164-.3445-3.0036-.14354-3.4327 0M38.8327 42.0479l-2.36-9.9043" stroke="#4D4D4D" stroke-width="2" stroke-linecap="round"/>
  <g clip-path="url(#clip0)">
    <path d="M117.117 64.0256c-.903-2.9303-2.459-5.7097-4.375-7.8445-1.024-1.1379-2.87-2.8297-7.155-4.3905-2.96-1.0775-6.4214-1.5609-8.5286-1.5609-2.5487 0-5.7496.856-7.8869 1.6515-2.0369.7653-5.4586 2.0342-7.6862 4.5315-1.4248 1.6011-3.2209 4.7732-3.9735 6.4448-.7425 1.6615-1.2342 6.1125-1.2342 8.3178 0 2.88.1003 4.9645.592 7.1094.3211 1.4098 1.8965 5.176 4.6659 7.8445 1.3346 1.289 3.6826 2.5578 7.3852 3.9978 3.2009 1.2487 5.9402 1.8831 8.1377 1.8831 2.7193 0 5.9406-.8257 8.2176-2.1147.592-.3323 1.215-.6243 1.817-.9063.562-.2618 1.083-.5135 1.495-.7552.351-.2014.652-.3827.953-.5539.983-.5639 1.766-1.007 2.659-1.8226 1.796-1.6415 2.689-3.736 3.472-5.5788.231-.5438.451-1.0473.672-1.5206 1.034-2.1248 1.565-4.6624 1.565-7.5625-.01-3.1217-.26-5.4681-.792-7.1699zm-5.941 6.5254c-.01-1.4098-.08-2.6887-.491-3.9676 1.445-.5136 2.207-.7653 2.94-1.0171.712-.2417 1.455-.4833 2.819-.9667.412 1.4904.623 3.4742.653 6.0319-1.576 0-2.409-.0201-3.211-.0402-.713-.0202-1.445-.0403-2.71-.0403zm-3.923 9.5463c-1.184-1.158-1.806-1.7421-2.418-2.306-.592-.5539-1.214-1.1278-2.358-2.2456.863-1.0775 1.415-2.4067 1.525-3.8669 1.485-.0101 2.298-.0906 3.091-.1712.812-.0805 1.655-.1611 3.271-.1611-.03.5236-.05.9768-.06 1.3897-.061 1.4601-.091 2.2657-.502 3.313-.572 1.4299-1.445 2.8196-2.549 4.0481zm-29.7111-2.5074c-.3512-1.732-.4415-3.4943-.4616-5.76 1.3045 0 2.057-.0101 2.7795-.0202.8128-.01 1.6556-.0201 3.2812-.0201.0301 1.2487.1706 2.4873.5218 3.6554-1.5052.5337-2.3079.8157-3.0906 1.0775-.7626.2719-1.5653.5538-3.0303 1.0674zm6.5222-18.0253c.6021.5035 1.2242 1.0171 2.2677 2.0039-.883 1.0171-1.5452 2.2255-2.1071 3.4742-1.4349-.574-2.2377-.8056-3.0103-1.0372-.7827-.2316-1.5252-.4431-2.8798-.9869.6924-1.4903 2.0971-3.9978 3.3414-5.5687 1.1037 1.0473 1.756 1.5911 2.3881 2.1147zm.6823 6.2635c.5018-1.1479 1.1941-2.5779 2.1674-3.7158 1.1941 1.148 1.8363 1.7321 2.4684 2.306.6021.5438 1.2142 1.1178 2.3079 2.1651-.9833 1.1278-1.6155 2.5678-1.7158 4.1488-1.6758 0-2.5287.0705-3.3615.1309-.7024.0504-1.4249.1108-2.6591.131 0-2.2356.271-3.9777.7927-5.166zm25.1056.7654c.452 1.2486.522 2.4873.532 3.9474-1.666 0-2.539.0906-3.372.1712-.762.0705-1.555.151-3 .1611-.07-1.6615-.722-3.172-1.766-4.3402 1.174-1.1379 1.846-1.6313 2.549-2.1549.662-.4935 1.344-.997 2.448-2.0442 1.194 1.3493 2.077 2.7793 2.609 4.2596zM96.9882 77.3684c-3.4317 0-6.2313-2.7794-6.2313-6.1931 0-3.4137 2.7996-6.193 6.2313-6.193 3.4318 0 6.2308 2.7793 6.2308 6.193 0 3.4137-2.799 6.1931-6.2308 6.1931zm7.3348-13.6247c-.692.5135-1.415 1.0573-2.639 2.2355-1.154-1.0271-2.6489-1.6817-4.2844-1.7723 0-1.4702-.0101-2.2859-.0201-3.0814-.01-.8358-.0201-1.7019-.0201-3.3634 1.6456.0403 3.4316.4531 5.0576 1.158 1.705.7351 3.14 1.6918 4.284 2.8398-1.073 1.007-1.716 1.4803-2.378 1.9838zm-2.157-5.7903c-1.505-.584-3.181-.9466-4.8166-.9868-.01-1.3393-.0301-2.1147-.0602-2.8599-.0301-.7855-.0502-1.6011-.0602-3.0714 1.9366.0202 4.927.4431 7.606 1.3494-.542 1.1883-.883 1.863-1.214 2.5175-.372.7452-.773 1.5306-1.455 3.0512zm-5.6796-3.8266c.0301.7452.0502 1.5105.0603 2.8498-1.5353.0705-2.8899.4733-4.2144.9768-.6021-1.3695-.9733-2.0744-1.3346-2.739-.3512-.6546-.7124-1.3393-1.2944-2.6686 1.8162-.6545 4.4853-1.3695 6.7229-1.4903.0101 1.4702.0402 2.2859.0602 3.0713zm-4.3247 4.743c1.5252-.6042 2.8698-1.0272 4.395-1.0976 0 1.6514.01 2.5175.0201 3.3633.01.7855.02 1.6012.02 3.0714-1.6757.0906-3.1908.7653-4.3448 1.8126-1.1037-1.0574-1.7259-1.6213-2.3279-2.1751-.6221-.574-1.2643-1.1682-2.4584-2.3061.5318-.5035 1.184-.9667 1.9567-1.3997.9332-.5236 1.9566-.9566 2.7393-1.2688zm-8.208 12.9299c1.2644-.0202 1.9968-.0705 2.7193-.131.8128-.0604 1.6556-.1309 3.2912-.1309.0803 1.6213.7225 3.1016 1.7359 4.2496-1.2141 1.1782-1.8864 1.7421-2.5286 2.2758-.582.4833-1.174.9768-2.1473 1.8931-1.0034-1.158-1.8061-2.5879-2.4483-4.3502-.3813-1.0473-.582-2.2657-.6222-3.8064zm3.0304 9.2945c1.0736 1.0675 2.348 1.8932 3.7327 2.5679-.6121 1.3695-.9232 2.1046-1.2342 2.8095-.281.6646-.582 1.3494-1.1238 2.5679-2.9401-1.1984-4.8867-2.2557-6.0707-3.3131 1.1639-1.1379 1.766-1.7421 2.348-2.3161.592-.584 1.194-1.1781 2.348-2.3161zm4.5555 2.0745c-1.6356-.7452-2.94-1.6112-3.9735-2.6283.9532-.9164 1.5452-1.3997 2.1172-1.8629.6622-.5438 1.3445-1.1077 2.5788-2.3161 1.1639 1.0472 2.669 1.7119 4.3347 1.8025 0 1.581.0201 2.4168.0301 3.2224.0201.8156.0301 1.6615.0301 3.2828-1.7961-.0906-3.522-.7754-5.1174-1.5004zm5.86 4.9947c.0301-.715.0602-1.4501.0702-2.7088 1.7359-.0806 3.4112-.6747 4.9472-1.3595.592 1.3494.943 2.0442 1.284 2.7189.311.6143.632 1.2487 1.144 2.3967-2.087 1.1681-4.9971 1.9334-7.5056 1.9837 0-1.4601.0301-2.2556.0602-3.031zm5.2884-5.0652c-1.636.7552-3.392 1.4702-5.2182 1.5608 0-1.6313-.0201-2.4772-.0301-3.2929-.0201-.8056-.0301-1.6313-.0301-3.2123 1.766-.1007 3.3614-.8559 4.5354-2.014 1.134 1.1077 1.756 1.6817 2.348 2.2356.602.5639 1.234 1.1479 2.408 2.306-1.033.9969-2.378 1.6615-4.013 2.4168zm13.526-19.2639c-1.375.4833-2.118.7351-2.83.9768-.743.2517-1.505.5035-2.97 1.017-.612-1.5004-1.525-2.8598-2.599-4.0481 1.114-1.0875 1.706-1.6817 2.278-2.2657.592-.6042 1.214-1.2185 2.408-2.3866 1.585 1.8831 2.89 4.2294 3.713 6.7066zm-4.235-7.3008c-1.224 1.1883-1.846 1.8227-2.448 2.4269-.572.574-1.164 1.1681-2.258 2.2356-1.234-1.2387-2.739-2.2154-4.365-2.9405.673-1.4903 1.064-2.2657 1.435-3.0109.341-.6747.693-1.3695 1.254-2.6081 3.683 1.3997 5.409 2.8498 6.382 3.897zm-23.0182-3.7158c.6021 1.3897.9834 2.0845 1.3346 2.7693.3511.6545.7124 1.3292 1.2944 2.6584-1.7159.6949-3.4016 1.5005-4.7061 2.7391-1.0536-.9969-1.6958-1.5206-2.3078-2.0342-.6322-.5236-1.2744-1.0573-2.3882-2.1147 1.8062-1.9636 4.3047-3.0814 6.7731-4.0179zm-10.9172 10.936c1.3847.5539 2.1774.7855 2.94 1.007.7927.2316 1.5353.4532 2.92 1.007-.6322 1.6314-.7526 3.7159-.7626 5.2364-1.6256 0-2.4684.0101-3.2812.0202-.7225.01-1.475.01-2.7795.0201.0201-2.165.4415-5.5687.9633-7.2907zm-.3211 14.6217c1.5152-.5438 2.3279-.8157 3.1206-1.0876.7827-.2719 1.5955-.5438 3.0906-1.0775.602 1.581 1.4148 3.0613 2.5085 4.31-1.174 1.1479-1.776 1.7521-2.368 2.3362-.582.5841-1.1941 1.1883-2.3581 2.3262-2.2276-2.3363-3.5922-5.4177-3.9936-6.8073zm11.3888 10.9662c.5419-1.2084.8329-1.8932 1.1138-2.5578.301-.7049.6121-1.4299 1.2242-2.7793 1.6155.725 3.3514 1.3796 5.2178 1.4601-.0101 1.2386-.0402 1.9637-.0602 2.6686-.0301.7754-.0602 1.581-.0703 3.0612-2.0068-.0906-4.4652-.6948-7.3249-1.8126-.0301-.0201-.0703-.0302-.1004-.0402zm20.0287-2.3564c-.301.1712-.613.3524-.964.5639-.381.2216-.883.4632-1.425.715-.371.1812-.782.3726-1.194.574-.501-1.1279-.822-1.7623-1.134-2.3765-.341-.6647-.682-1.3595-1.274-2.6887 1.475-.6848 2.97-1.4098 4.114-2.5276.713.7351 1.154 1.2587 1.535 1.722.623.7451 1.154 1.3896 2.539 2.5678-.692.5841-1.334.9567-2.197 1.4501zm2.799-2.0039c-1.385-1.1682-1.886-1.7724-2.518-2.5276-.402-.4834-.853-1.0271-1.606-1.7925 1.013-1.1177 1.897-2.4268 2.509-3.8266 1.254.5136 1.916.8056 2.558 1.0977.622.2819 1.275.5639 2.459 1.0573-.141.3122-.281.6344-.422.9667-.702 1.6616-1.495 3.5346-2.98 5.025zm3.743-6.7167c-1.204-.4934-1.846-.7855-2.469-1.0574-.642-.2819-1.314-.584-2.578-1.1077.491-1.3796.401-2.4671.531-4.753 1.265.0101 1.997.0201 2.71.0403.812.0201 1.645.0403 3.231.0403-.04 2.6081-.512 4.9141-1.425 6.8375z" fill="#4D4D4D"/>
  </g>
  <g clip-path="url(#clip1)">
    <path d="M40.7386 64.0256c-.9031-2.9303-2.4584-5.7097-4.3749-7.8445-1.0235-1.1379-2.8698-2.8297-7.1544-4.3905-2.9601-1.0775-6.4219-1.5609-8.5291-1.5609-2.5487 0-5.7496.856-7.8869 1.6515-2.0369.7653-5.45855 2.0342-7.68614 4.5315-1.42486 1.6011-3.22098 4.7732-3.97354 6.4448C.391089 64.519-.100586 68.97-.100586 71.1753c0 2.88.10034196 4.9645.592017 7.1094.321094 1.4098 1.896459 5.176 4.665899 7.8445 1.33455 1.289 3.68255 2.5578 7.38517 3.9978 3.2009 1.2487 5.9402 1.8831 8.1377 1.8831 2.7193 0 5.9403-.8257 8.218-2.1147.592-.3323 1.2142-.6243 1.8162-.9063.5619-.2618 1.0837-.5135 1.4951-.7552.3512-.2014.6522-.3827.9533-.5539.9833-.5639 1.766-1.007 2.659-1.8226 1.7961-1.6415 2.6892-3.736 3.4718-5.5788.2308-.5438.4516-1.0473.6723-1.5206 1.0336-2.1248 1.5654-4.6624 1.5654-7.5625-.0101-3.1217-.2609-5.4681-.7927-7.1699zm-5.9403 6.5254c-.01-1.4098-.0802-2.6887-.4916-3.9676 1.4449-.5136 2.2075-.7653 2.94-1.0171.7124-.2417 1.4549-.4833 2.8196-.9667.4114 1.4904.6221 3.4742.6522 6.0319-1.5754 0-2.4082-.0201-3.2109-.0402-.7125-.0202-1.445-.0403-2.7093-.0403zm-3.9233 9.5463c-1.1841-1.158-1.8062-1.7421-2.4183-2.306-.592-.5539-1.2141-1.1278-2.358-2.2456.8629-1.0775 1.4148-2.4067 1.5252-3.8669 1.485-.0101 2.2978-.0906 3.0905-.1712.8128-.0805 1.6557-.1611 3.2712-.1611-.0301.5236-.0502.9768-.0602 1.3897-.0603 1.4601-.0904 2.2657-.5018 3.313-.5719 1.4299-1.4449 2.8196-2.5486 4.0481zM1.16372 77.5899c-.351195-1.732-.441502-3.4943-.461571-5.76 1.304441 0 2.057011-.0101 2.779471-.0202.81277-.01 1.65564-.0201 3.28118-.0201.0301 1.2487.17058 2.4873.52178 3.6554-1.50513.5337-2.30787.8157-3.09053 1.0775-.7626.2719-1.56534.5538-3.03033 1.0674zm6.52223-18.0253c.60205.5035 1.22417 1.0171 2.26772 2.0039-.88301 1.0171-1.54526 2.2255-2.10718 3.4742-1.43489-.574-2.23762-.8056-3.01025-1.0372-.78267-.2316-1.5252-.4431-2.87982-.9869.69236-1.4903 2.09715-3.9978 3.34139-5.5687 1.10376 1.0473 1.75598 1.5911 2.38814 2.1147zm.68232 6.2635c.50171-1.1479 1.19407-2.5779 2.16743-3.7158 1.194 1.148 1.8362 1.7321 2.4684 2.306.602.5438 1.2141 1.1178 2.3078 2.1651-.9833 1.1278-1.6155 2.5678-1.7158 4.1488-1.6757 0-2.5286.0705-3.3615.1309-.70236.0504-1.42482.1108-2.65903.131 0-2.2356.27092-3.9777.7927-5.166zm25.10553.7654c.4516 1.2486.5218 2.4873.5318 3.9474-1.6656 0-2.5386.0906-3.3715.1712-.7626.0705-1.5553.151-3.0002.1611-.0702-1.6615-.7224-3.172-1.766-4.3402 1.174-1.1379 1.8463-1.6313 2.5487-2.1549.6622-.4935 1.3446-.997 2.4483-2.0442 1.1941 1.3493 2.0771 2.7793 2.6089 4.2596zM20.61 77.3684c-3.4317 0-6.2312-2.7794-6.2312-6.1931 0-3.4137 2.7995-6.193 6.2312-6.193s6.2312 2.7793 6.2312 6.193c0 3.4137-2.7995 6.1931-6.2312 6.1931zm7.335-13.6247c-.6924.5135-1.4148 1.0573-2.639 2.2355-1.1539-1.0271-2.649-1.6817-4.2846-1.7723 0-1.4702-.01-2.2859-.0201-3.0814-.01-.8358-.0201-1.7019-.0201-3.3634 1.6457.0403 3.4317.4531 5.0573 1.158 1.7058.7351 3.1407 1.6918 4.2846 2.8398-1.0737 1.007-1.7159 1.4803-2.3781 1.9838zm-2.1574-5.7903c-1.5051-.584-3.1808-.9466-4.8164-.9868-.01-1.3393-.0301-2.1147-.0602-2.8599-.0301-.7855-.0502-1.6011-.0602-3.0714 1.9366.0202 4.9268.4431 7.6059 1.3494-.5418 1.1883-.883 1.863-1.2141 2.5175-.3713.7452-.7727 1.5306-1.455 3.0512zm-5.6793-3.8266c.0301.7452.0501 1.5105.0602 2.8498-1.5353.0705-2.8899.4733-4.2144.9768-.602-1.3695-.9733-2.0744-1.3345-2.739-.3512-.6546-.7125-1.3393-1.2944-2.6686 1.8161-.6545 4.4852-1.3695 6.7229-1.4903.01 1.4702.0401 2.2859.0602 3.0713zm-4.3248 4.743c1.5252-.6042 2.8698-1.0272 4.395-1.0976 0 1.6514.01 2.5175.0201 3.3633.01.7855.02 1.6012.02 3.0714-1.6757.0906-3.1908.7653-4.3448 1.8126-1.1037-1.0574-1.7258-1.6213-2.3279-2.1751-.6221-.574-1.2643-1.1682-2.4584-2.3061.5318-.5035 1.1841-.9667 1.9567-1.3997.9332-.5236 1.9567-.9566 2.7393-1.2688zM7.57557 71.7997c1.26431-.0202 1.9968-.0705 2.71923-.131.8128-.0604 1.6557-.1309 3.2912-.1309.0803 1.6213.7225 3.1016 1.736 4.2496-1.2142 1.1782-1.8865 1.7421-2.5287 2.2758-.5819.4833-1.174.9768-2.1473 1.8931-1.00339-1.158-1.80612-2.5879-2.44831-4.3502-.3813-1.0473-.58198-2.2657-.62212-3.8064zm3.03033 9.2945c1.0737 1.0675 2.348 1.8932 3.7327 2.5679-.6121 1.3695-.9231 2.1046-1.2342 2.8095-.2809.6646-.582 1.3494-1.1238 2.5679-2.94004-1.1984-4.88667-2.2557-6.07071-3.3131 1.16397-1.1379 1.76602-1.7421 2.348-2.3161.59202-.584 1.19407-1.1781 2.34801-2.3161zm4.5555 2.0745c-1.6356-.7452-2.94-1.6112-3.9735-2.6283.9532-.9164 1.5452-1.3997 2.1172-1.8629.6622-.5438 1.3446-1.1077 2.5788-2.3161 1.1639 1.0472 2.6691 1.7119 4.3347 1.8025 0 1.581.0201 2.4168.0302 3.2224.02.8156.0301 1.6615.0301 3.2828-1.7962-.0906-3.522-.7754-5.1175-1.5004zm5.86 4.9947c.0301-.715.0602-1.4501.0702-2.7088 1.7359-.0806 3.4116-.6747 4.9469-1.3595.592 1.3494.9432 2.0442 1.2844 2.7189.311.6143.6321 1.2487 1.1439 2.3967-2.0872 1.1681-4.9971 1.9334-7.5056 1.9837 0-1.4601.0301-2.2556.0602-3.031zm5.288-5.0652c-1.6356.7552-3.3916 1.4702-5.2178 1.5608 0-1.6313-.02-2.4772-.0301-3.2929-.02-.8056-.0301-1.6313-.0301-3.2123 1.766-.1007 3.3615-.8559 4.5355-2.014 1.1338 1.1077 1.756 1.6817 2.348 2.2356.602.5639 1.2342 1.1479 2.4082 2.306-1.0335.9969-2.3781 1.6615-4.0137 2.4168zm13.5261-19.2639c-1.3747.4833-2.1172.7351-2.8297.9768-.7425.2517-1.5051.5035-2.9701 1.017-.6121-1.5004-1.5252-2.8598-2.5988-4.0481 1.1138-1.0875 1.7058-1.6817 2.2777-2.2657.5921-.6042 1.2142-1.2185 2.4082-2.3866 1.5854 1.8831 2.8899 4.2294 3.7127 6.7066zm-4.2344-7.3008c-1.2242 1.1883-1.8463 1.8227-2.4484 2.4269-.5719.574-1.1639 1.1681-2.2577 2.2356-1.2342-1.2387-2.7393-2.2154-4.3648-2.9405.6722-1.4903 1.0636-2.2657 1.4348-3.0109.3412-.6747.6924-1.3695 1.2543-2.6081 3.6826 1.3997 5.4084 2.8498 6.3818 3.897zm-23.0185-3.7158c.6021 1.3897.9834 2.0845 1.3346 2.7693.3512.6545.7124 1.3292 1.2944 2.6584-1.7159.6949-3.4016 1.5005-4.706 2.7391-1.05364-.9969-1.69583-1.5206-2.30791-2.0342-.63215-.5236-1.27434-1.0573-2.38814-2.1147 1.80616-1.9636 4.30465-3.0814 6.77305-4.0179zM1.66543 63.7537c1.38472.5539 2.17742.7855 2.94002 1.007.7927.2316 1.53523.4532 2.91995 1.007-.63216 1.6314-.75257 3.7159-.7626 5.2364-1.62554 0-2.46841.0101-3.28118.0202-.72246.01-1.47503.01-2.779471.0201.020069-2.165.441501-5.5687.963281-7.2907zm-.32109 14.6217c1.51516-.5438 2.32793-.8157 3.12063-1.0876.78267-.2719 1.59544-.5438 3.09053-1.0775.60205 1.581 1.41482 3.0613 2.5085 4.31-1.17395 1.1479-1.776 1.7521-2.36802 2.3362-.58198.5841-1.19407 1.1883-2.35804 2.3262-2.22759-2.3363-3.59223-5.4177-3.9936-6.8073zM12.7331 89.3416c.5419-1.2084.8329-1.8932 1.1138-2.5578.3011-.7049.6121-1.4299 1.2242-2.7793 1.6155.725 3.3514 1.3796 5.2178 1.4601-.01 1.2386-.0401 1.9637-.0602 2.6686-.0301.7754-.0602 1.581-.0703 3.0612-2.0068-.0906-4.4652-.6948-7.3249-1.8126-.0301-.0201-.0703-.0302-.1004-.0402zm20.0283-2.3564c-.301.1712-.6121.3524-.9633.5639-.3813.2216-.883.4632-1.4248.715-.3713.1812-.7827.3726-1.1941.574-.5017-1.1279-.8228-1.7623-1.1339-2.3765-.3411-.6647-.6823-1.3595-1.2743-2.6887 1.475-.6848 2.9701-1.4098 4.114-2.5276.7124.7351 1.1539 1.2587 1.5352 1.722.6221.7451 1.154 1.3896 2.5387 2.5678-.6924.5841-1.3346.9567-2.1975 1.4501zm2.7995-2.0039c-1.3847-1.1682-1.8864-1.7724-2.5186-2.5276-.4013-.4834-.8529-1.0271-1.6054-1.7925 1.0134-1.1177 1.8964-2.4268 2.5085-3.8266 1.2543.5136 1.9165.8056 2.5587 1.0977.6222.2819 1.2744.5639 2.4584 1.0573-.1405.3122-.2809.6344-.4214.9667-.7024 1.6616-1.4951 3.5346-2.9802 5.025zm3.7428-6.7167c-1.2041-.4934-1.8463-.7855-2.4684-1.0574-.6422-.2819-1.3145-.584-2.5788-1.1077.4917-1.3796.4013-2.4671.5318-4.753 1.2643.0101 1.9968.0201 2.7092.0403.8128.0201 1.6456.0403 3.231.0403-.0401 2.6081-.5117 4.9141-1.4248 6.8375z" fill="#4D4D4D"/>
  </g>
  <path d="M86.7816 43.1244h21.9934c1.001.1436 2.617 1.0335 1.072 3.445-1.931 3.0143-11.1561 24.5454-12.2288 24.7608M85.1035 37.0957h19.1655M38.6182 42.4784l3.4327 12.9187m44.1964-10.7656l-41.1928 22.823-3.0036-12.0574m44.1964-10.7656l10.9418 26.2679M86.2473 44.6315l-4.9346-15.933c-1.2873 8.11-10.9418 24.8038-39.2618 26.6986M37.9745 42.2632l-3.4327 5.0111m0 0L19.3091 71.1149 6.2218 45.2775v-1.2918l23.8145-.646 4.5055 3.9346z" stroke="#4D4D4D" stroke-width="2" stroke-linecap="round"/>
  <path d="M86.4618 2h-7.08M74.4473 8.02881h-7.08" stroke="#4D4D4D" stroke-width="3" stroke-linecap="round"/>
  <path d="M16.3054 69.6076c0-4.9522 7.7237-5.1675 20.3818-5.1675 19.7382 0 24.1726 1.1937 21.6691 7.1053-3.6472 8.6124-11.3709 5.1674-21.6691 3.445-11.0228-1.8437-20.3818-.8613-20.3818-5.3828zM9.65452 42.0478c-2.57455 0-2.64606-4.4498-2.36-6.6747.09477-1.0765 19.73818-2.1531 21.23998-1.5071 1.5018.6459 0 2.799.6436 3.8756.515.8612-.2145 2.6555-.6436 3.4449-5.2206.2871-16.3054.8613-18.87998.8613zM86.6763 35.8039l-5.1491-14.2105c0-1.7225 23.3858-1.5072 26.1748-1.2919 2.789.2153-3.218 14.6411-3.433 15.5024-.172.689-11.7999.2871-17.5927 0z" fill="#ECD9C2"/>
  <path d="M28.7491 26.7606c.6865-2.067 5.4351-.861 8.3672.0002 2.1455-.6459 6.0073-.8613 6.4364.2152.3433.8612-2.7581 2.445-5.1896 4.024l-2.4911 1c-1.2873-1.0766-7.8095-3.1724-7.1229-5.2394z" fill="#4D4D4D"/>
  <path d="M49.1309 73.2675c.5006 2.5119 2.4887 7.8804 6.4364 9.2584m-18.451-55.7651c-2.9321-.8612-7.6807-2.0672-8.3672-.0002-.6866 2.067 5.8356 4.1628 7.1229 5.2394l2.4911-1c2.4315-1.579 5.5329-3.1628 5.1896-4.024-.4291-1.0765-4.2909-.8611-6.4364-.2152z" stroke="#4D4D4D" stroke-width="2" stroke-linecap="round"/>
  <path d="M52.5637 83.1724h6.8655" stroke="#4D4D4D" stroke-width="3" stroke-linecap="round"/>
  <defs>
    <clipPath id="clip0">
      <path fill="#fff" transform="translate(76.3782 50.2297)" d="M0 0h41.6218v41.7703H0z"/>
    </clipPath>
    <clipPath id="clip1">
      <path fill="#fff" transform="translate(0 50.2297)" d="M0 0h41.6218v41.7703H0z"/>
    </clipPath>
  </defs>
</svg>
