<svg fill="none" height="54" width="64" xmlns="http://www.w3.org/2000/svg">
  <g stroke="#4d4d4d" stroke-width="2">
    <path d="M9.95517 41.4825c-4.28833 11.4643 5.36033 13.5761 13.01813 9.805.6976-.3436 3.8288-1.5085 5.3603-2.2627 6.892-2.5889 10.7208 9.0507 18.3786 0 7.6577-9.0507-13.7839-25.6437-18.3786-25.6437-4.5946 0-13.018 3.7711-18.37843 18.1014zM13.8499 20.4205c.6071 4.1695-1.7239 7.6149-4.78032 8.0466s-6.27657-2.2297-6.88365-6.3991c-.60709-4.1695 1.72389-7.615 4.78031-8.0467 3.05646-.4317 6.27656 2.2297 6.88366 6.3992zM31.1624 9.80494c0 5.01076-3.4607 8.80496-7.4235 8.80496s-7.4235-3.7942-7.4235-8.80496C16.3154 4.79422 19.7761 1 23.7389 1s7.4235 3.79422 7.4235 8.80494zM49.5985 15.8903c-.9255 4.2455-4.6534 6.8373-8.1387 6.1003-3.4852-.737-5.8043-4.6077-4.8788-8.8531.9255-4.2455 4.6534-6.83736 8.1386-6.10032 3.4853.73703 5.8044 4.60762 4.8789 8.85312zM59.0936 30.593c-1.7889 3.2818-5.5129 4.5143-8.2299 3.0775-2.7171-1.4368-3.7315-5.1749-1.9426-8.4566 1.7889-3.2818 5.5129-4.5143 8.2299-3.0775 2.7171 1.4368 3.7315 5.1749 1.9426 8.4566z"/>
  </g>
</svg>
