<svg width="57" height="57" fill="none" xmlns="http://www.w3.org/2000/svg">
  <g clip-path="url(#clip0)">
    <path d="M22.5745 50.2061c-3.2651-.8749-5.6595-2.5505-7.5947-4.1031-2.0372-1.58-3.6595-3.4841-5.44507-6.4117-1.71071-2.7986-2.57114-5.0973-2.92819-7.6421-.05781-.3964-.11562-.7929-.17343-1.1894-.31285-2.0975-.64609-4.527.03421-7.066.55786-2.0819 1.58506-3.8748 2.61227-5.6677.40816-.707.7517-1.3769 1.09521-2.0468.1327-.291.33-.6191.4626-.9101 1.1769-2.3515 2.3674-4.7537 4.8605-6.09939 2.7515-1.49412 5.9691-2.48242 9.1118-2.78325 3.8739-.37702 7.0098-.24428 9.6117.45289 2.8569.76552 5.8805 2.33763 8.5368 4.46445 2.0747 1.6444 3.9725 3.9489 5.945 7.1987 1.7107 2.7986 2.765 5.8023 2.9656 8.5229.1598 2.0565-.5375 4.0466-1.2076 5.9352-.2823.8496-.6156 1.6855-.8469 2.5487-.1905.7109-.3436 1.4863-.4967 2.2616-.3912 2.0722-.8606 4.2323-2.2823 5.865-1.4864 1.6699-3.5645 2.6914-5.527 3.6894-.6327.3203-1.2653.6406-1.8469.9746l-.1667.0098c-2.4931 1.3456-5.0508 2.7284-7.9384 3.0976-2.9896.3419-6.0779-.3768-8.7818-1.1013zM33.7043 8.66904c-2.3467-.62882-5.2139-.74398-8.8566-.41384-2.8604.26762-5.782 1.17193-8.2241 2.5313-1.9761 1.0488-2.9693 3.1229-4.0407 5.2849-.1327.2911-.33.6192-.4626.9102-.3572.7206-.7653 1.4276-1.1735 2.1346-.99999 1.6914-1.94897 3.3964-2.43879 5.2244-.58506 2.1835-.27221 4.281.00322 6.3141.05781.3965.11562.793.17343 1.1894.30944 2.3143 1.08485 4.3181 2.64594 6.859 1.6359 2.6697 3.1323 4.4313 4.9417 5.8413 1.9114 1.4374 3.9759 2.9158 6.8329 3.6813 2.4998.6699 5.384 1.3338 7.9247 1.035 2.4896-.3126 4.7889-1.5469 7.1663-2.8692l.1293-.0742c.6462-.3711 1.2788-.6914 1.9625-.998 1.8979-.961 3.7175-1.834 4.9046-3.2031 1.0952-1.2304 1.4693-3.035 1.8333-5.0056.1531-.7754.3062-1.5507.5239-2.3632.2449-.914.5918-1.8007.8878-2.701.6428-1.7871 1.2585-3.4725 1.0919-5.0955-.2176-2.453-1.1495-5.0973-2.7105-7.6382-1.823-2.992-3.6085-5.1032-5.4927-6.6421-2.289-1.8651-5.0201-3.30439-7.622-4.00156z" fill="#F1F1F1"/>
  </g>
  <rect x="18.5" y="19.5" width="19" height="19" rx="3.5" stroke="#F1F1F1"/>
  <circle cx="28" cy="29" r="4.5" stroke="#F1F1F1"/>
  <circle cx="33" cy="24" r="1.25" fill="#F1F1F1"/>
  <defs>
    <clipPath id="clip0">
      <path fill="#fff" transform="rotate(15 2.7122885 48.28733143)" d="M0 0h45v45H0z"/>
    </clipPath>
  </defs>
</svg>
