<svg width="98" height="94" fill="none" xmlns="http://www.w3.org/2000/svg">
  <path d="M33.4893 69.0944c2.2887-2.1439 3.1091-5.4966 4.5125-5.8463 9.3424-1.1937 12.835-2.2606 13.9884-3.1335 10.3786-2.6369 7.6711 1.7844 15.3422 3.1335 6.1369 1.0794 3.61 5.8463 10.3786 4.7334-2.2793.3958-5.8202 1.7934-11.7323 5.1604-10.0932 5.748-25.3324-.2998-32.4894-4.0475z" fill="#ECD9C2"/>
  <path d="M1 70.4436c12.5325-1.3492 14.6202-.1801 26.172-9.8939 2.2562-3.1479 6.8588-4.4073 14.4397-4.0475 9.476.4497 9.9273.8997 10.3785 1.7991.2117.4219 1.0193 1.0418 0 1.8133M31.6844 73.1419c1.0534-2.6995.1689-2.5149 1.8049-4.0475m0 0c2.2887-2.1439 3.1091-5.4966 4.5125-5.8463 9.3424-1.1937 12.835-2.2606 13.9884-3.1335m-18.5009 8.9798c7.157 3.7477 22.3962 9.7955 32.4894 4.0475 5.9121-3.367 9.453-4.7646 11.7323-5.1604m4.5124 1.1129c-4.9637 3.4477-15.1617 10.7928-16.2447 12.5918-1.3537 2.2488-9.0248 1.3494-15.7934 4.4974m32.0381-17.0892c2.7074-1.3491 4.0611.8995 3.1587 1.3492-.8072.4022-14.4397 16.1897-22.5621 18.4383-8.3064 2.2995-21.6596 5.8463-39.258 3.148-15.70299-2.4077-17.14711-2.2486-22.562 0m81.2234-22.9355c-.9604-.7178-1.9208-1.563-4.5124-1.1129m0 0c-6.7686 1.1129-4.2417-3.654-10.3786-4.7334-7.6711-1.3491-4.9636-5.7704-15.3422-3.1335m-1.8049 6.7313c2.1058-.2998 6.4978-.4498 7.2198 1.3491.9025 2.2486 2.2562.8994 5.4149.8994 2.527 0 4.0612.8995 4.5124 1.3492" stroke="#4D4D4D" stroke-linecap="round"/>
  <path d="M58.4537 68.9589c-.1291-1.7803-.0129-3.9128.4745-6.1759.8353-3.8787 2.7608-8.1406 6.4095-11.6696-1.5972-7.6733 2.4621-20.6324 31.4767-11.082-6.0351 8.1884-20.7795 21.8685-31.4767 11.082-3.6487 3.529-5.5742 7.7909-6.4095 11.6696-.1294 1.8683-.2885 3.9154-.4745 6.1759-.5919-6.5821-2.2391-11.589-4.4392-15.3595-17.7603 6.8601-24.5706-7.6549-25.7557-15.7699 22.8293-2.6749 26.6827 9.3987 25.7557 15.7699 2.2001 3.7705 3.8473 8.7774 4.4392 15.3595z" fill="#BBCEB6"/>
  <path d="M58.4537 68.9589c-.3505-4.8317 1.1065-12.2576 6.884-17.8455m-6.884 17.8455c1.2805-15.5642 1.2844-21.0075-.8718-27.6586m.8718 27.6586c-.5919-6.5821-2.2391-11.589-4.4392-15.3595m35.7077-10.0789c-11.974-.3487-19.6376 3.0017-24.3845 7.5929m-29.5911-8.0013c4.7382-.4395 13.055 1.5535 18.2679 10.4873m11.3232-2.486c-1.5972-7.6733 2.4621-20.6324 31.4767-11.082-6.0351 8.1884-20.7795 21.8685-31.4767 11.082zm-11.3232 2.486c.927-6.3712-2.9264-18.4448-25.7557-15.7699 1.1851 8.115 7.9954 22.63 25.7557 15.7699z" stroke="#769D6C" stroke-linecap="round"/>
  <g clip-path="url(#clip0)">
    <path d="M78.0838 13.7418c-.9087-2.9189-2.4736-5.6873-4.402-7.81377-1.0298-1.13345-2.8875-2.81857-7.1985-4.3733C63.5049.481464 60.0218 0 57.9016 0c-2.5645 0-5.7851.852593-7.9356 1.645-2.0495.76232-5.4923 2.02617-7.7337 4.51373-1.4336 1.59485-3.2408 4.75447-3.998 6.41957-.7472 1.655-1.2419 6.0885-1.2419 8.2852 0 2.8687.101 4.945.5957 7.0815.3231 1.4043 1.9082 5.1557 4.6947 7.8138 1.3428 1.2839 3.7053 2.5477 7.4308 3.9821 3.2207 1.2438 5.9769 1.8757 8.188 1.8757 2.736 0 5.9769-.8225 8.2687-2.1064.5957-.331 1.2216-.6219 1.8274-.9028.5654-.2608 1.0904-.5115 1.5043-.7523.3534-.2006.6563-.3811.9592-.5516.9894-.5618 1.7769-1.0031 2.6755-1.8156 1.8072-1.6349 2.7057-3.7213 3.4932-5.5569.2322-.5416.4543-1.0431.6765-1.5146 1.0399-2.1164 1.575-4.6441 1.575-7.5329-.0101-3.1094-.2625-5.4465-.7976-7.1417zm-5.977 6.4998c-.0101-1.4043-.0807-2.6782-.4947-3.9521 1.4539-.5115 2.2212-.7623 2.9582-1.013.7168-.2408 1.4639-.4815 2.837-.963.414 1.4845.626 3.4606.6563 6.0083-1.5851 0-2.4231-.0201-3.2308-.0401-.7168-.0201-1.4538-.0401-2.726-.0401zm-3.9475 9.5089c-1.1914-1.1535-1.8174-1.7353-2.4332-2.297-.5957-.5517-1.2217-1.1234-2.3726-2.2368.8683-1.0733 1.4235-2.3973 1.5346-3.8517 1.4942-.01 2.312-.0903 3.1096-.1705.8178-.0803 1.6659-.1605 3.2914-.1605-.0303.5216-.0505.9729-.0606 1.3842-.0606 1.4544-.0909 2.2568-.5048 3.3-.5755 1.4244-1.4539 2.8086-2.5644 4.0323zm-29.8948-2.4976c-.3533-1.7253-.4442-3.4806-.4644-5.7375 1.3125 0 2.0697-.01 2.7967-.02.8177-.0101 1.6658-.0201 3.3014-.0201.0303 1.2438.1716 2.4776.525 3.6411-1.5144.5316-2.3221.8125-3.1096 1.0733-.7673.2708-1.575.5516-3.0491 1.0632zM44.827 9.29828c.6058.50153 1.2318 1.01312 2.2818 1.99612-.8885 1.013-1.5548 2.2167-2.1202 3.4605-1.4438-.5718-2.2515-.8025-3.0289-1.0332-.7875-.2307-1.5346-.4413-2.8976-.983.6967-1.4845 2.1101-3.98207 3.3621-5.54683 1.1105 1.04318 1.7668 1.58482 2.4028 2.10641zm.6866 6.23902c.5048-1.1435 1.2014-2.5679 2.1808-3.7013 1.2014 1.1435 1.8475 1.7252 2.4836 2.297.6058.5416 1.2216 1.1134 2.3221 2.1565-.9894 1.1235-1.6255 2.5578-1.7264 4.1326-1.6861 0-2.5443.0702-3.3822.1304-.7068.0502-1.4337.1103-2.6755.1304 0-2.2268.2726-3.962.7976-5.1456zm25.2606.7623c.4543 1.2438.525 2.4775.535 3.9319-1.6759 0-2.5543.0903-3.3923.1706-.7673.0702-1.5649.1504-3.0187.1604-.0707-1.655-.7269-3.1596-1.7769-4.3231 1.1812-1.1335 1.8577-1.6249 2.5644-2.1465.6663-.4915 1.3529-.9931 2.4635-2.0362 1.2014 1.3441 2.0899 2.7684 2.625 4.2429zM57.8309 27.0322c-3.4529 0-6.2697-2.7684-6.2697-6.1687 0-3.4004 2.8168-6.1688 6.2697-6.1688s6.2697 2.7684 6.2697 6.1688c0 3.4003-2.8168 6.1687-6.2697 6.1687zm7.3803-13.5713c-.6967.5116-1.4236 1.0532-2.6553 2.2268-1.1611-1.0231-2.6654-1.6751-4.3111-1.7654 0-1.4644-.0101-2.2769-.0202-3.0693-.0101-.8325-.0202-1.69515-.0202-3.35018 1.6558.04012 3.4529.45137 5.0885 1.15351 1.7163.73223 3.1601 1.68517 4.3111 2.82857-1.0803 1.0031-1.7265 1.4745-2.3928 1.976zm-2.1707-5.7675c-1.5144-.58177-3.2005-.94287-4.8462-.98299-.01-1.33406-.0302-2.10641-.0605-2.84866-.0303-.78238-.0505-1.59486-.0606-3.059309 1.9486.020061 4.9572.441339 7.6529 1.344089-.5452 1.1836-.8885 1.85564-1.2217 2.50763-.3735.74225-.7774 1.52463-1.4639 3.03924zm-5.7144-3.81159c.0303.74225.0505 1.50457.0606 2.83863-1.5448.07021-2.9077.47143-4.2404.97296-.6058-1.36415-.9794-2.06629-1.3428-2.7283-.3534-.65198-.7168-1.33406-1.3024-2.65808 1.8274-.65199 4.513-1.364152 6.7644-1.484518.0101 1.464458.0404 2.276928.0606 3.059308zm-4.3515 4.72437c1.5347-.60183 2.8875-1.02312 4.4222-1.09333 0 1.645.01 2.50765.0201 3.35015.0101.7824.0202 1.5949.0202 3.0593-1.686.0903-3.2105.7624-4.3716 1.8055-1.1106-1.0532-1.7365-1.6149-2.3423-2.1666-.626-.5717-1.2721-1.1635-2.4736-2.2969.5351-.5016 1.1914-.963 1.9688-1.39428.9389-.52159 1.9687-.9529 2.7562-1.26384zM44.716 21.4853c1.2721-.02 2.0091-.0702 2.736-.1303.8178-.0602 1.6659-.1304 3.3116-.1304.0807 1.6149.7269 3.0894 1.7466 4.2328-1.2216 1.1736-1.8981 1.7353-2.5442 2.2669-.5856.4815-1.1813.973-2.1606 1.8858-1.0096-1.1535-1.8173-2.5779-2.4635-4.3332-.3836-1.0432-.5855-2.2569-.6259-3.7916zm3.049 9.2582c1.0803 1.0632 2.3625 1.8857 3.7558 2.5578-.6159 1.3641-.9289 2.0964-1.2418 2.7985-.2827.662-.5856 1.3441-1.1308 2.5578-2.9582-1.1937-4.9168-2.2469-6.1082-3.3001 1.1712-1.1334 1.7769-1.7352 2.3625-2.307.5957-.5817 1.2015-1.1735 2.3625-2.307zm4.5837 2.0663c-1.6457-.7423-2.9582-1.6049-3.9981-2.618.9591-.9127 1.5548-1.3942 2.1303-1.8556.6663-.5417 1.3529-1.1034 2.5947-2.307 1.1712 1.0431 2.6856 1.7052 4.3615 1.7954 0 1.5748.0202 2.4074.0303 3.2098.0202.8125.0303 1.655.0303 3.2699-1.8072-.0902-3.5437-.7723-5.149-1.4945zm5.8961 4.9751c.0303-.7121.0606-1.4444.0707-2.6982 1.7466-.0802 3.4327-.672 4.9774-1.3541.5957 1.3441.949 2.0362 1.2923 2.7082.313.6119.6361 1.2438 1.151 2.3873-2.1 1.1635-5.0279 1.9259-7.5519 1.976 0-1.4544.0302-2.2468.0605-3.0192zm5.3207-5.0453c-1.6457.7523-3.4125 1.4644-5.25 1.5547 0-1.6249-.0202-2.4675-.0303-3.28-.0202-.8024-.0303-1.6249-.0303-3.1997 1.7769-.1003 3.3822-.8526 4.5635-2.0061 1.1408 1.1034 1.7668 1.6751 2.3625 2.2268.6058.5617 1.2418 1.1434 2.4231 2.297-1.0399.993-2.3928 1.655-4.0385 2.4073zm13.6096-19.1884c-1.3832.4815-2.1303.7322-2.8471.973-.7471.2507-1.5144.5015-2.9885 1.0131-.6158-1.4946-1.5346-2.8487-2.6149-4.0323 1.1207-1.0833 1.7164-1.6751 2.2919-2.25687.5956-.60183 1.2216-1.21369 2.423-2.37723 1.5952 1.8757 2.9077 4.2128 3.7356 6.6803zm-4.2606-7.2721c-1.2317 1.1836-1.8577 1.81552-2.4634 2.41735-.5755.57174-1.1712 1.16354-2.2717 2.22675-1.2418-1.23373-2.7562-2.20669-4.3918-2.92889.6765-1.48451 1.0702-2.25686 1.4438-2.99912.3432-.67204.6966-1.36415 1.262-2.5979 3.7053 1.39424 5.4418 2.83864 6.4211 3.88181zM49.754 2.57784c.6057 1.38421.9894 2.07632 1.3428 2.75839.3533.65198.7168 1.32403 1.3024 2.64805-1.7265.69211-3.4226 1.49455-4.7351 2.72832-1.0601-.99304-1.7063-1.51462-2.3222-2.02618-.636-.52159-1.2822-1.0532-2.4028-2.10641 1.8173-1.95595 4.3312-3.06933 6.8149-4.00217zM38.7694 13.471c1.3932.5517 2.1908.7824 2.9581 1.003.7976.2307 1.5447.4514 2.938 1.0031-.6361 1.6249-.7572 3.7012-.7673 5.2158-1.6356 0-2.4837.0101-3.3014.0201-.727.01-1.4842.01-2.7967.0201.0202-2.1566.4443-5.5469.9693-7.2621zm-.3231 14.5643c1.5245-.5417 2.3423-.8125 3.1399-1.0833.7875-.2708 1.6053-.5417 3.1096-1.0733.6058 1.5748 1.4236 3.0493 2.524 4.2931-1.1812 1.1434-1.787 1.7453-2.3827 2.327-.5855.5818-1.2014 1.1836-2.3726 2.3171-2.2413-2.3271-3.6144-5.3964-4.0182-6.7806zm11.4591 10.9232c.5452-1.2037.838-1.8857 1.1207-2.5478.3029-.7021.6158-1.4243 1.2317-2.7684 1.6255.7222 3.3721 1.3742 5.25 1.4544-.0101 1.2338-.0404 1.956-.0606 2.6581-.0303.7724-.0605 1.5748-.0706 3.0493-2.0193-.0903-4.4928-.6921-7.3702-1.8055-.0303-.02-.0707-.0301-.101-.0401zm20.1519-2.3471c-.3029.1705-.6158.351-.9692.5617-.3837.2206-.8885.4614-1.4337.7121-.3735.1806-.7875.3712-1.2014.5718-.5048-1.1235-.8279-1.7554-1.1409-2.3672-.3432-.662-.6865-1.3542-1.2822-2.6782 1.4842-.6821 2.9885-1.4042 4.1394-2.5176.7169.7322 1.1611 1.2538 1.5448 1.7152.6259.7422 1.161 1.3842 2.5543 2.5578-.6967.5817-1.3428.9529-2.2111 1.4444zm2.8168-1.9961c-1.3932-1.1636-1.898-1.7654-2.5341-2.5177-.4038-.4814-.8582-1.0231-1.6154-1.7854 1.0197-1.1134 1.9082-2.4174 2.5241-3.8116 1.262.5116 1.9283.8024 2.5745 1.0933.626.2809 1.2822.5617 2.4735 1.0532-.1413.311-.2826.632-.424.963-.7067 1.655-1.5043 3.5207-2.9986 5.0052zm3.7659-6.6904c-1.2115-.4915-1.8577-.7823-2.4836-1.0532-.6462-.2808-1.3226-.5817-2.5948-1.1033.4948-1.3742.4039-2.4575.5351-4.7344 1.2722.01 2.0092.02 2.726.0401.8178.0201 1.6558.0401 3.251.0401-.0404 2.5979-.5149 4.8949-1.4337 6.8107z" fill="#4D4D4D"/>
  </g>
  <defs>
    <clipPath id="clip0">
      <path fill="#fff" transform="translate(37.0935)" d="M0 0h41.8788v41.6066H0z"/>
    </clipPath>
  </defs>
</svg>
