<svg width="57" height="57" fill="none" xmlns="http://www.w3.org/2000/svg">
  <path d="M33 19.0478c-6.6667-.665-4.6667 5.5867-4.6667 19.9522M23 27.6938h10" stroke="#F1F1F1" stroke-width="3"/>
  <g clip-path="url(#clip0)">
    <path d="M34.4255 6.79389c3.2651.87488 5.6595 2.55052 7.5947 4.10311 2.0372 1.58 3.6595 3.4841 5.4451 6.4117 1.7107 2.7986 2.5711 5.0973 2.9282 7.6421.0578.3964.1156.7929.1734 1.1894.3128 2.0975.6461 4.527-.0342 7.066-.5579 2.0819-1.5851 3.8748-2.6123 5.6677-.4081.707-.7517 1.3769-1.0952 2.0468-.1327.291-.33.6191-.4626.9101-1.1769 2.3515-2.3674 4.7537-4.8605 6.0994-2.7515 1.4941-5.9691 2.4824-9.1118 2.7832-3.8739.3771-7.0098.2443-9.6117-.4528-2.8569-.7656-5.8805-2.3377-8.5368-4.4645-2.0747-1.6444-3.9725-3.9489-5.94504-7.1987-1.71071-2.7986-2.76498-5.8023-2.96558-8.5229-.15979-2.0565.5375-4.0466 1.20759-5.9352.28232-.8496.61566-1.6855.84696-2.5487.19049-.7109.34356-1.4863.49664-2.2616.39119-2.0722.86062-4.2323 2.28233-5.865 1.4864-1.6699 3.5645-2.6914 5.527-3.68939.6327-.32031 1.2653-.64062 1.8469-.97459l.1667-.00977c2.4931-1.34569 5.0508-2.72849 7.9384-3.09767 2.9896-.34184 6.0779.3768 8.7818 1.10131zM23.2957 48.331c2.3467.6288 5.2139.7439 8.8566.4138 2.8604-.2676 5.782-1.1719 8.2241-2.5313 1.9761-1.0488 2.9693-3.1229 4.0407-5.2849.1327-.2911.33-.6192.4626-.9102.3572-.7206.7653-1.4276 1.1735-2.1346 1-1.6914 1.949-3.3964 2.4388-5.2244.5851-2.1835.2722-4.281-.0032-6.3141-.0578-.3965-.1156-.793-.1735-1.1894-.3094-2.3143-1.0848-4.3181-2.6459-6.859-1.6359-2.6697-3.1323-4.4313-4.9417-5.8413-1.9114-1.4374-3.9759-2.91581-6.8329-3.68133-2.4998-.66983-5.384-1.3338-7.9247-1.03493-2.4896.31254-4.7889 1.5469-7.1663 2.86916l-.1293.0742c-.6462.3711-1.2788.6914-1.9625.998-1.8979.961-3.7175 1.834-4.9046 3.2031-1.0952 1.2304-1.4693 3.035-1.83333 5.0056-.15307.7754-.30615 1.5507-.52384 2.3632-.24491.914-.59186 1.8007-.88779 2.701-.64287 1.7871-1.25853 3.4725-1.09192 5.0955.2176 2.453 1.14945 5.0973 2.71048 7.6382 1.823 2.992 3.6085 5.1032 5.4927 6.6421 2.289 1.8651 5.0201 3.3044 7.622 4.0016z" fill="#F1F1F1"/>
  </g>
  <defs>
    <clipPath id="clip0">
      <path fill="#fff" transform="rotate(-165 25.8949457 25.10496287)" d="M0 0h45v45H0z"/>
    </clipPath>
  </defs>
</svg>
