<svg width="222" height="222" fill="none" xmlns="http://www.w3.org/2000/svg">
  <g clip-path="url(#clip0)">
    <path d="M217.289 73.3221c-4.816-15.5743-13.112-30.3457-23.334-41.6919-5.459-6.0478-15.307-15.0391-38.16-23.33464C140.007 2.56895 121.542 0 110.303 0 96.7093 0 79.6365 4.54918 68.2368 8.77724 57.3723 12.8447 39.122 19.5882 27.2406 32.8611c-7.5998 8.5097-17.1798 25.3684-21.1938 34.2527C2.08634 75.9445-.536133 99.6003-.536133 111.321c0 15.307.53519792 26.385 3.157663 37.785 1.71264 7.493 10.11527 27.509 24.88667 41.692 7.1182 6.85 19.6418 13.594 39.3906 21.247 17.0728 6.637 31.6837 10.009 43.4042 10.009 14.504 0 31.684-4.389 43.833-11.24 3.158-1.766 6.476-3.318 9.687-4.816 2.997-1.392 5.78-2.73 7.975-4.014 1.873-1.071 3.478-2.034 5.084-2.944 5.245-2.997 9.419-5.352 14.183-9.687 9.58-8.724 14.343-19.856 18.518-29.65 1.23-2.89 2.408-5.566 3.585-8.082 5.513-11.292 8.349-24.779 8.349-40.193-.053-16.591-1.391-29.0611-4.228-38.1059zm-31.683 34.6809c-.054-7.493-.429-14.2899-2.623-21.0869 7.707-2.7295 11.775-4.0675 15.681-5.4055 3.8-1.2845 7.761-2.5689 15.04-5.1379 2.194 7.9209 3.318 18.4643 3.478 32.0583-8.402 0-12.844-.107-17.126-.214-3.8-.107-7.707-.214-14.45-.214zm-20.927 50.737c-6.315-6.155-9.633-9.259-12.898-12.256-3.158-2.944-6.476-5.995-12.577-11.935 4.603-5.727 7.546-12.792 8.135-20.552 7.921-.053 12.256-.482 16.484-.91 4.335-.428 8.831-.856 17.448-.856-.161 2.783-.268 5.191-.322 7.386-.321 7.76-.481 12.042-2.676 17.608-3.05 7.599-7.706 14.985-13.594 21.515zM6.20736 145.413c-1.87319-9.205-2.35487-18.571-2.46191-30.613 6.95755 0 10.97155-.054 14.82495-.107 4.3351-.054 8.8308-.107 17.501-.107.1606 6.636.9098 13.219 2.783 19.427-8.0279 2.837-12.3095 4.336-16.4841 5.727-4.0675 1.445-8.3491 2.944-16.16294 5.673zM40.9952 49.6128c3.2112 2.676 6.5294 5.4055 12.0955 10.6505-4.7098 5.4055-8.2421 11.8278-11.2392 18.4643-7.6533-3.0506-11.9349-4.2816-16.0559-5.5126-4.1745-1.2309-8.135-2.3548-15.3602-5.2449 3.6929-7.9209 11.1857-21.2473 17.8221-29.5964 5.8872 5.566 9.366 8.4561 12.7377 11.2391zm3.6394 33.2893c2.6759-6.1012 6.3688-13.701 11.5602-19.7488 6.3689 6.1013 9.7941 9.2054 13.1659 12.256 3.2112 2.8901 6.4759 5.9407 12.3095 11.5068-5.2449 5.9942-8.6166 13.6479-9.1518 22.0499-8.9378 0-13.487.375-17.9292.696-3.7464.268-7.5998.589-14.1827.696 0-11.8816 1.445-21.1405 4.2281-27.4559zm133.9064 4.0675c2.408 6.6365 2.783 13.2194 2.837 20.9794-8.885 0-13.541.482-17.983.91-4.068.375-8.296.803-16.002.857-.375-8.831-3.854-16.8592-9.42-23.0675 6.262-6.0477 9.848-8.6702 13.594-11.4532 3.532-2.6225 7.172-5.2985 13.059-10.8645 6.369 7.1716 11.078 14.7714 13.915 22.6388zm-68.612 57.2664c-18.3041 0-33.2361-14.772-33.2361-32.915 0-18.1431 14.932-32.9145 33.2361-32.9145 18.303 0 33.235 14.7714 33.235 32.9145 0 18.143-14.932 32.915-33.235 32.915zm39.123-72.4125c-3.693 2.7295-7.547 5.6196-14.076 11.8814-6.155-5.459-14.129-8.9378-22.853-9.4195 0-7.8139-.054-12.149-.107-16.377-.054-4.4422-.107-9.0449-.107-17.8756 8.777.2141 18.304 2.4084 26.974 6.1548 9.098 3.9069 16.752 8.9913 22.853 15.0925-5.727 5.352-9.152 7.8674-12.684 10.5434zm-11.507-30.7738c-8.028-3.1042-16.966-5.0309-25.69-5.245-.053-7.1181-.16-11.2391-.321-15.1996-.16-4.1745-.267-8.5096-.321-16.32352 10.329.10704 26.278 2.35487 40.568 7.17162-2.89 6.3154-4.71 9.9012-6.476 13.38-1.98 3.9604-4.121 8.135-7.76 16.2165zm-30.292-20.3375c.16 3.9604.267 8.0279.321 15.146-8.1887.3747-15.4139 2.5155-22.4785 5.1915-3.2112-7.2787-5.1914-11.0251-7.1181-14.5574-1.8732-3.4788-3.7999-7.1181-6.9041-14.1828 9.6871-3.47874 23.9234-7.27864 35.8587-7.92088.053 7.81388.214 12.14898.321 16.32358zM84.1857 45.92c8.135-3.2112 15.3066-5.4591 23.4413-5.8337 0 8.7772.054 13.38.107 17.8756.054 4.1746.107 8.5096.107 16.3235-8.9374.4817-17.0189 4.0675-23.1737 9.6336-5.8871-5.6196-9.2054-8.6167-12.4165-11.5603-3.3183-3.0506-6.7435-6.2083-13.1124-12.256 2.8366-2.676 6.3154-5.1379 10.4364-7.4392 4.9773-2.7831 10.4363-5.0844 14.6109-6.7435zm-43.7792 68.719c6.7435-.107 10.6504-.374 14.5039-.695 4.3351-.322 8.8307-.696 17.5544-.696.4282 8.617 3.8535 16.484 9.259 22.585-6.4759 6.262-10.0618 9.259-13.487 12.096-3.1042 2.569-6.2618 5.191-11.4533 10.061-5.3519-6.154-9.6335-13.754-13.0588-23.12-2.0337-5.566-3.1041-12.042-3.3182-20.231zm16.163 49.399c5.7266 5.673 12.5236 10.062 19.9093 13.648-3.2647 7.278-4.9238 11.185-6.5829 14.932-1.4986 3.532-3.1042 7.171-5.9942 13.647-15.6813-6.369-26.0642-11.988-32.3795-17.608 6.2083-6.048 9.4195-9.259 12.5236-12.309 3.1577-3.105 6.3689-6.262 12.5237-12.31zm24.2979 11.025c-8.7237-3.96-15.6813-8.563-21.1938-13.969 5.0844-4.87 8.2421-7.439 11.2927-9.901 3.5323-2.89 7.1716-5.887 13.7546-12.309 6.2083 5.566 14.2362 9.098 23.1201 9.58 0 8.402.107 12.845.161 17.126.107 4.335.161 8.831.161 17.448-9.5805-.482-18.7859-4.121-27.2956-7.975zm31.2556 26.546c.161-3.8.321-7.707.375-14.397 9.259-.428 18.196-3.586 26.385-7.225 3.158 7.172 5.031 10.864 6.85 14.45 1.66 3.265 3.372 6.637 6.102 12.738-11.132 6.208-26.653 10.276-40.033 10.543 0-7.76.16-11.988.321-16.109zm28.205-26.92c-8.724 4.013-18.09 7.813-27.83 8.295 0-8.67-.107-13.166-.161-17.501-.107-4.281-.16-8.67-.16-17.073 9.419-.535 17.929-4.549 24.19-10.704 6.048 5.888 9.366 8.938 12.524 11.882 3.211 2.997 6.583 6.101 12.845 12.256-5.513 5.298-12.684 8.831-21.408 12.845zm72.145-102.3838c-7.333 2.569-11.293 3.907-15.093 5.1914-3.96 1.338-8.028 2.676-15.842 5.4055-3.265-7.9744-8.135-15.1996-13.861-21.5149 5.94-5.7802 9.098-8.9378 12.149-12.042 3.157-3.2112 6.475-6.4759 12.844-12.6842 8.456 10.0082 15.414 22.4783 19.803 35.6442zm-22.586-38.8018c-6.529 6.3153-9.847 9.6871-13.059 12.8982-3.05 3.0507-6.208 6.2083-12.042 11.8814-6.582-6.5829-14.61-11.7743-23.281-15.6277 3.586-7.921 5.673-12.042 7.654-16.0025 1.819-3.5858 3.693-7.2786 6.69-13.8616 19.641 7.4393 28.847 15.1461 34.038 20.7122zM67.1129 13.7546c3.2112 7.3857 5.2449 11.0786 7.1181 14.7179 1.8732 3.4788 3.7999 7.0646 6.904 14.1292-9.1518 3.6929-18.1432 7.9745-25.1007 14.5574-5.6196-5.2984-9.0449-8.0815-12.3096-10.811-3.3717-2.783-6.797-5.6196-12.7377-11.2391 9.6336-10.4364 22.96-16.3771 36.1259-21.3544zM8.88335 71.8771c7.38575 2.9435 11.61375 4.1745 15.68125 5.3519 4.2281 1.231 8.1886 2.4084 15.5743 5.352-3.3717 8.6702-4.014 19.749-4.0675 27.83-8.6702 0-13.1659.054-17.501.107-3.8534.054-7.8674.054-14.82495.107.10704-11.5064 2.35487-29.5961 5.1379-38.7479zM7.17071 149.588c8.08149-2.89 12.41659-4.335 16.64469-5.78 4.1745-1.445 8.5096-2.89 16.4841-5.727 3.2111 8.403 7.5462 16.27 13.3799 22.906-6.2618 6.102-9.473 9.313-12.6307 12.417-3.1041 3.104-6.3688 6.315-12.5771 12.363-11.8814-12.416-19.16009-28.794-21.30089-36.179zm60.74499 58.283c2.89-6.423 4.4421-10.062 5.9407-13.594 1.6055-3.747 3.2647-7.6 6.5294-14.772 8.6166 3.854 17.8756 7.333 27.8302 7.761-.053 6.583-.214 10.436-.321 14.182-.161 4.121-.321 8.403-.375 16.27-10.7037-.481-23.816-3.692-39.0691-9.633-.1606-.107-.3747-.161-.5352-.214zm106.8253-12.524c-1.605.91-3.265 1.873-5.138 2.997-2.034 1.178-4.71 2.462-7.6 3.8-1.98.964-4.174 1.98-6.368 3.051-2.676-5.994-4.389-9.366-6.048-12.631-1.82-3.532-3.64-7.225-6.797-14.29 7.867-3.639 15.842-7.492 21.943-13.433 3.8 3.907 6.155 6.69 8.188 9.152 3.319 3.96 6.155 7.385 13.541 13.647-3.693 3.104-7.118 5.085-11.721 7.707zm14.932-10.65c-7.386-6.209-10.062-9.42-13.433-13.434-2.141-2.569-4.55-5.459-8.563-9.526 5.405-5.941 10.115-12.899 13.379-20.338 6.69 2.73 10.223 4.282 13.648 5.834 3.318 1.498 6.797 2.997 13.112 5.619-.749 1.66-1.498 3.372-2.247 5.138-3.747 8.831-7.975 18.786-15.896 26.707zm19.963-35.698c-6.422-2.622-9.848-4.175-13.166-5.62-3.425-1.498-7.011-3.104-13.754-5.887 2.622-7.332 2.14-13.112 2.836-25.261 6.744.053 10.651.107 14.45.214 4.336.107 8.778.214 17.234.214-.214 13.862-2.73 26.118-7.6 36.34z" fill="#ECD9C2"/>
  </g>
  <defs>
    <clipPath id="clip0">
      <path fill="#fff" d="M0 0h222v222H0z"/>
    </clipPath>
  </defs>
</svg>
