<svg width="414" height="414" fill="none" xmlns="http://www.w3.org/2000/svg">
  <g clip-path="url(#clip0)">
    <path d="M405.215 136.736c-8.983-29.044-24.453-56.5909-43.516-77.75-10.18-11.2782-28.545-28.0458-71.162-43.5159C261.094 4.79074 226.66 0 205.701 0c-25.351 0-57.19 8.48361-78.449 16.3684-20.261 7.5853-54.2949 20.161-76.4521 44.9132C36.6273 77.1509 18.7618 108.59 11.2763 125.158 3.89055 141.626-1 185.741-1 207.599c0 28.545.99807143 49.205 5.88862 70.464 3.19383 13.973 18.86358 51.301 46.41028 77.749 13.2744 12.776 36.6293 25.351 73.4581 39.624 31.838 12.376 59.086 18.664 80.944 18.664 27.047 0 59.085-8.184 81.742-20.96 5.888-3.293 12.076-6.188 18.065-8.982 5.589-2.595 10.779-5.09 14.871-7.486 3.493-1.996 6.487-3.793 9.482-5.489 9.781-5.589 17.566-9.981 26.449-18.065 17.865-16.269 26.748-37.029 34.533-55.293 2.295-5.39 4.491-10.38 6.687-15.071 10.28-21.06 15.57-46.211 15.57-74.956-.1-30.94-2.595-54.195-7.885-71.062zm-59.086 64.675c-.1-13.973-.798-26.649-4.89-39.324 14.372-5.09 21.957-7.586 29.243-10.081 7.087-2.395 14.472-4.79 28.046-9.581 4.092 14.771 6.188 34.433 6.487 59.784-15.669 0-23.953-.199-31.938-.399-7.086-.2-14.372-.399-26.948-.399zm-39.024 94.617c-11.778-11.478-17.966-17.267-24.054-22.856-5.888-5.489-12.077-11.178-23.455-22.257 8.584-10.679 14.073-23.854 15.171-38.326 14.772-.1 22.856-.898 30.741-1.696 8.084-.799 16.468-1.597 32.537-1.597-.3 5.19-.499 9.681-.599 13.773-.599 14.472-.898 22.457-4.99 32.837-5.689 14.172-14.373 27.946-25.351 40.122zM11.5757 271.176c-3.49325-17.167-4.39151-34.633-4.59113-57.09 12.97493 0 20.46043-.099 27.64653-.199 8.0844-.1 16.4682-.2 32.637-.2.2994 12.376 1.6967 24.652 5.19 36.23-14.9711 5.29-22.9557 8.084-30.7406 10.679-7.5854 2.695-15.57 5.49-30.1418 10.58zM76.4503 92.5212c5.9885 4.9904 12.1765 10.0808 22.5565 19.8618-8.7831 10.08-15.3703 22.057-20.9595 34.433-14.2725-5.689-22.257-7.984-29.9422-10.28-7.7849-2.295-15.1707-4.391-28.6446-9.781 6.8867-14.771 20.8597-39.6234 33.2357-55.1933 10.9788 10.38 17.4663 15.7695 23.7541 20.9595zm6.7869 62.0798c4.9904-11.378 11.8771-25.55 21.5588-36.829 11.877 11.378 18.264 17.167 24.552 22.856 5.989 5.39 12.077 11.079 22.956 21.459-9.781 11.178-16.069 25.451-17.067 41.12-16.668 0-25.152.699-33.436 1.298-6.9861.499-14.1723 1.098-26.4485 1.297 0-22.157 2.6948-39.424 7.8847-51.201zm249.7178 7.586c4.491 12.376 5.19 24.652 5.289 39.124-16.568 0-25.251.898-33.535 1.697-7.585.698-15.47 1.497-29.842 1.597-.699-16.469-7.186-31.44-17.566-43.017 11.677-11.278 18.364-16.169 25.351-21.359 6.587-4.891 13.374-9.881 24.353-20.261 11.877 13.374 20.66 27.547 25.95 42.219zM205.002 268.98c-34.134 0-61.98-27.547-61.98-61.381 0-33.835 27.846-61.382 61.98-61.382s61.98 27.547 61.98 61.382c0 33.834-27.846 61.381-61.98 61.381zm72.959-135.039c-6.887 5.09-14.073 10.48-26.249 22.157-11.478-10.18-26.349-16.667-42.618-17.566 0-14.572-.1-22.656-.2-30.541-.099-8.2837-.199-16.8671-.199-33.3353 16.368.3993 34.134 4.4914 50.303 11.4779 16.967 7.2859 31.239 16.7674 42.617 28.1454-10.679 9.981-17.067 14.672-23.654 19.662zm-21.459-57.3889c-14.971-5.7888-31.638-9.3819-47.907-9.7811-.1-13.2744-.299-20.9595-.599-28.3452-.299-7.785-.499-15.8694-.599-30.44123 19.263.19962 49.006 4.39153 75.654 13.37413-5.389 11.7773-8.783 18.4644-12.077 24.9518-3.692 7.3857-7.685 15.1707-14.472 30.2416zm-56.49-37.9267c.299 7.3857.499 14.971.598 28.2454-15.27.6986-28.744 4.6909-41.919 9.6813-5.988-13.5738-9.681-20.5603-13.274-27.1476-3.493-6.4874-7.086-13.2743-12.875-26.4489 18.065-6.4874 44.614-13.57373 66.871-14.77141.1 14.57181.399 22.65621.599 30.44121zm-43.017 47.0091c15.17-5.9884 28.545-10.1803 43.715-10.8789 0 16.3683.1 24.9517.2 33.3354.1 7.785.199 15.869.199 30.441-16.667.899-31.738 7.586-43.216 17.966-10.979-10.48-17.167-16.069-23.155-21.559-6.188-5.689-12.576-11.577-24.453-22.856 5.29-4.99 11.777-9.581 19.462-13.8728 9.282-5.1899 19.463-9.4816 27.248-12.5757zM75.3525 213.787c12.5757-.2 19.8616-.699 27.0475-1.298 8.085-.598 16.468-1.297 32.737-1.297.798 16.069 7.186 30.741 17.267 42.119-12.077 11.677-18.764 17.266-25.152 22.556-5.789 4.791-11.677 9.681-21.359 18.764-9.9803-11.478-17.9648-25.651-24.3525-43.117-3.7927-10.38-5.7888-22.457-6.188-37.727zm30.1415 92.122c10.68 10.579 23.355 18.764 37.128 25.451-6.088 13.574-9.182 20.859-12.276 27.846-2.794 6.587-5.789 13.374-11.178 25.451C89.9243 372.78 70.5617 362.3 58.7845 351.82c11.5776-11.278 17.566-17.266 23.3549-22.955 5.8886-5.789 11.877-11.678 23.3546-22.956zm45.313 20.56c-16.269-7.386-29.244-15.969-39.524-26.05 9.482-9.082 15.37-13.873 21.059-18.464 6.588-5.389 13.375-10.979 25.651-22.955 11.577 10.379 26.548 16.967 43.116 17.865 0 15.67.2 23.954.3 31.938.2 8.085.299 16.468.299 32.537-17.865-.898-35.032-7.685-50.901-14.871zm58.287 49.505c.299-7.087.599-14.373.699-26.849 17.266-.798 33.934-6.687 49.205-13.474 5.888 13.375 9.381 20.261 12.775 26.948 3.094 6.089 6.288 12.376 11.378 23.754-20.76 11.578-49.704 19.163-74.656 19.662 0-14.472.3-22.356.599-30.041zm52.598-50.203c-16.268 7.485-33.734 14.571-51.899 15.47 0-16.169-.2-24.553-.3-32.637-.199-7.985-.299-16.169-.299-31.839 17.566-.998 33.435-8.483 45.113-19.961 11.278 10.979 17.466 16.668 23.355 22.157 5.988 5.589 12.276 11.378 23.953 22.856-10.28 9.881-23.654 16.468-39.923 23.954zm134.54-190.932c-13.673 4.791-21.059 7.286-28.145 9.682-7.386 2.495-14.971 4.99-29.543 10.08-6.088-14.871-15.171-28.345-25.85-40.122 11.078-10.779 16.967-16.668 22.656-22.4568 5.889-5.9884 12.077-12.0767 23.954-23.6543 15.769 18.6639 28.744 41.9191 36.928 66.4711zm-42.118-72.3597c-12.177 11.7772-18.365 18.0651-24.353 24.0535-5.689 5.689-11.578 11.5776-22.457 22.1572-12.276-12.2763-27.247-21.9576-43.416-29.1437 6.687-14.7715 10.58-22.4566 14.273-29.8423 3.393-6.6871 6.886-13.5738 12.475-25.8501 36.63 13.8732 53.797 28.2454 63.478 38.6254zM125.156 25.6504c5.989 13.7734 9.781 20.6601 13.275 27.447 3.493 6.4875 7.086 13.1745 12.875 26.3491-17.067 6.8867-33.835 14.8713-46.81 27.1475-10.4796-9.8809-16.8673-15.0709-22.9555-20.161-6.2878-5.19-12.6755-10.4798-23.7541-20.9595 17.9653-19.4624 42.8176-30.541 67.3696-39.8231zM16.5661 134.041c13.7733 5.489 21.6581 7.785 29.2435 9.981 7.8847 2.295 15.2704 4.491 29.0438 9.98-6.2878 16.169-7.4855 36.829-7.5853 51.9-16.1688 0-24.5526.1-32.637.2-7.1861.1-14.6716.1-27.64653.199.19962-21.458 4.39153-55.193 9.58153-72.26zm-3.1939 144.92c15.0709-5.39 23.1553-8.084 31.0401-10.779 7.7849-2.695 15.8693-5.39 30.7406-10.68 5.9884 15.67 14.0728 30.342 24.9521 42.718-11.6778 11.378-17.6662 17.366-23.5549 23.155-5.7888 5.789-11.877 11.777-23.4546 23.056-22.1572-23.156-35.731-53.697-39.7233-67.47zm113.2808 108.69c5.39-11.977 8.284-18.764 11.079-25.351 2.994-6.987 6.088-14.173 12.176-27.547 16.069 7.186 33.336 13.674 51.9 14.472-.1 12.276-.399 19.463-.599 26.449-.299 7.685-.599 15.67-.698 30.341-19.962-.898-44.415-6.886-72.86-17.965-.299-.199-.698-.299-.998-.399zm199.215-23.355c-2.994 1.697-6.088 3.493-9.581 5.589-3.793 2.196-8.783 4.591-14.173 7.087-3.693 1.796-7.785 3.692-11.877 5.689-4.99-11.179-8.184-17.467-11.278-23.555-3.393-6.587-6.787-13.474-12.675-26.648 14.671-6.787 29.542-13.973 40.92-25.052 7.087 7.286 11.478 12.476 15.271 17.067 6.188 7.386 11.478 13.773 25.251 25.451-6.887 5.789-13.274 9.482-21.858 14.372zm27.847-19.862c-13.774-11.577-18.764-17.566-25.052-25.051-3.992-4.791-8.484-10.18-15.969-17.766 10.08-11.078 18.863-24.053 24.952-37.927 12.476 5.091 19.063 7.985 25.45 10.879 6.188 2.795 12.676 5.59 24.453 10.48-1.397 3.094-2.794 6.288-4.192 9.582-6.986 16.468-14.871 35.032-29.642 49.803zm37.228-66.571c-11.977-4.89-18.365-7.785-24.553-10.48-6.388-2.794-13.075-5.788-25.65-10.978 4.89-13.674 3.992-24.453 5.289-47.109 12.576.099 19.862.199 26.948.399 8.085.199 16.369.399 32.138.399-.399 25.85-5.09 48.706-14.172 67.769z" fill="#8F6F48"/>
  </g>
  <defs>
    <clipPath id="clip0">
      <path fill="#fff" d="M0 0h414v414H0z"/>
    </clipPath>
  </defs>
</svg>
